<svg width="800" height="800" viewBox="0 0 800 800">
                <path className="fa-primary"
                  d="M100 80C88.9543 80 80 88.9543 80 100V699.75C80 710.796 88.9543 719.75 100 719.75H699.75C710.796 719.75 719.75 710.796 719.75 699.75V100C719.75 88.9543 710.796 80 699.75 80H100ZM673.101 106.649C684.146 106.65 693.1 115.604 693.1 126.649V215.246C693.1 219.318 691.857 223.293 689.537 226.64L529.656 457.276C523.083 466.758 509.871 468.727 500.819 461.573L413.623 392.667C404.657 385.583 391.589 387.436 384.947 396.735L274.506 551.366C268.232 560.15 256.118 562.371 247.137 556.383L198.94 524.252C190.526 518.643 179.25 520.196 172.666 527.871L106.675 604.8V126.626C106.675 115.58 115.63 106.625 126.676 106.626L673.101 106.649ZM126.65 693.1C115.604 693.1 106.65 684.146 106.65 673.1V645.775L177.515 563.171C184.099 555.496 195.376 553.943 203.79 559.553L253.812 592.906C262.794 598.895 274.907 596.675 281.182 587.891L390.373 435.032C397.014 425.735 410.081 423.881 419.047 430.965L506.543 500.099C515.596 507.252 528.807 505.283 535.38 495.801L693.075 268.3V673.1C693.075 684.146 684.121 693.1 673.075 693.1H126.65Z"
                  fill="currentColor" stroke="currentColor" strokeWidth="32" />
              </svg>